<svg width="67" height="67" viewBox="0 0 67 67" fill="none" xmlns="http://www.w3.org/2000/svg">
<path d="M56.3302 17.1352C56.3302 16.0967 55.9031 15.6612 54.8814 15.5942C53.2566 15.4937 51.6319 15.4267 50.0239 15.2341C46.5801 14.8543 43.214 13.9535 40.0409 12.5625C38.0118 11.7285 36.1906 10.4591 34.706 8.84397C34.4055 8.54523 34.0866 8.26552 33.7512 8.00647H33.0561C32.7881 8.22422 32.5117 8.42522 32.2605 8.65972C31.5547 9.37732 30.8111 10.0567 30.0327 10.6948C27.4524 12.4549 24.5581 13.703 21.507 14.3715C18.3739 15.1661 15.158 15.5877 11.926 15.6277C11.7284 15.6016 11.5275 15.6213 11.3388 15.6852C11.1501 15.7492 10.9786 15.8558 10.8377 15.9967C10.6968 16.1376 10.5903 16.3091 10.5263 16.4978C10.4623 16.6865 10.4426 16.8874 10.4687 17.085C10.4687 22.6376 10.4687 28.1902 10.4687 33.7428C10.4973 35.3317 10.6824 36.9138 11.0215 38.4663C12.196 43.5193 15.0043 48.0438 19.0112 51.3387C23.045 54.8336 27.8051 57.3881 32.9472 58.8176C33.2953 58.9135 33.6628 58.9135 34.0109 58.8176C39.518 57.2627 44.5724 54.4109 48.7509 50.5012C53.6837 45.7693 56.3805 40.0492 56.3386 33.1315C56.3135 27.7798 56.3302 22.4533 56.3302 17.1352ZM53.7424 34.2202C53.6351 38.7903 51.9145 43.1751 48.8849 46.5985C45.4745 50.516 41.1388 53.5188 36.2721 55.3336L35.711 55.543C33.3576 56.3805 33.3492 56.3805 31.0042 55.543C26.2142 53.8354 21.9054 51.0002 18.4417 47.2768C14.8779 43.4688 12.9244 38.4304 12.9896 33.2152C12.9896 28.3912 12.9896 23.5672 12.9896 18.7432V18.2156C20.4182 17.621 27.5286 16.281 33.3995 11.2811C37.3776 14.8907 42.3105 16.482 47.4946 17.4451C49.3957 17.7968 51.3387 17.9141 53.2566 18.1402H53.7172C53.7242 18.2462 53.7242 18.3525 53.7172 18.4585C53.7759 23.7096 53.8345 28.9691 53.7424 34.2202Z" fill="#FF9601"/>
<path d="M39.6807 30.887C39.3206 30.887 38.9521 30.887 38.5082 30.887C38.5082 30.0495 38.5082 29.212 38.5082 28.3745C38.511 27.5006 38.2884 26.6407 37.862 25.8779C37.4356 25.1151 36.8197 24.4751 36.0739 24.0197C35.328 23.5642 34.4774 23.3088 33.604 23.2779C32.7306 23.2471 31.8641 23.4419 31.088 23.8436C30.23 24.2695 29.5117 24.9318 29.0176 25.7523C28.5235 26.5728 28.2742 27.5175 28.2991 28.475C28.2991 29.2622 28.2991 30.0579 28.2991 30.887C27.8636 30.887 27.4616 30.887 27.1098 30.887C26.9299 30.8745 26.7494 30.9008 26.5806 30.9642C26.4117 31.0277 26.2586 31.1267 26.1314 31.2547C26.0043 31.3826 25.9062 31.5364 25.8438 31.7056C25.7814 31.8749 25.7562 32.0555 25.7698 32.2354C25.7698 35.5854 25.7698 38.9354 25.7698 42.2854C25.7517 42.4651 25.7736 42.6466 25.834 42.8168C25.8944 42.9871 25.9918 43.1418 26.1191 43.2699C26.2464 43.3981 26.4006 43.4964 26.5704 43.5578C26.7403 43.6193 26.9216 43.6424 27.1015 43.6254C31.3057 43.6254 35.5128 43.6254 39.7226 43.6254C39.8988 43.6392 40.0759 43.6147 40.2417 43.5535C40.4075 43.4924 40.5581 43.396 40.6831 43.271C40.8081 43.146 40.9045 42.9954 40.9656 42.8296C41.0268 42.6638 41.0513 42.4867 41.0375 42.3105C41.0375 38.9605 41.0375 35.5965 41.0375 32.2186C41.0489 32.0386 41.0214 31.8583 40.9569 31.6898C40.8924 31.5214 40.7924 31.3688 40.6637 31.2424C40.535 31.1161 40.3806 31.019 40.2109 30.9576C40.0413 30.8963 39.8605 30.8722 39.6807 30.887ZM30.887 28.0395C30.907 27.3731 31.1908 26.742 31.6762 26.285C32.1615 25.8279 32.8085 25.5824 33.4748 25.6024C34.1412 25.6224 34.7723 25.9062 35.2294 26.3916C35.6864 26.8769 35.932 27.5239 35.912 28.1902C35.912 29.0277 35.912 29.9406 35.912 30.8451H30.887C30.8702 29.882 30.82 28.9524 30.887 28.0395ZM38.525 41.0794H28.341V33.5H38.525V41.0794Z" fill="#FF9601"/>
</svg>
