<svg width="66" height="66" viewBox="0 0 66 66" fill="none" xmlns="http://www.w3.org/2000/svg">
<path d="M55.5968 30.4177C54.9727 29.6918 54.2792 29.0286 53.526 28.4377C52.896 28.0334 52.4222 27.427 52.1823 26.7179C51.9425 26.0088 51.9508 25.2392 52.206 24.5355C52.5065 23.5097 52.7055 22.4569 52.8 21.3922C52.9285 20.5343 52.714 19.6603 52.203 18.9593C51.6919 18.2583 50.9254 17.7868 50.0693 17.6467C49.9365 17.606 49.8016 17.5729 49.665 17.5477C48.6255 17.424 47.5778 17.2755 46.5383 17.193C45.9137 17.2011 45.3031 17.0082 44.7965 16.6428C44.2899 16.2773 43.9143 15.7587 43.725 15.1635C43.6082 14.8145 43.4705 14.4729 43.3125 14.1405C42.9528 13.3221 42.5394 12.5284 42.075 11.7645C41.6725 11.089 41.0354 10.5853 40.2853 10.3494C39.5351 10.1136 38.7244 10.1621 38.0078 10.4857C36.9882 10.8828 36.0145 11.389 35.1038 11.9955C34.4874 12.4799 33.7262 12.7432 32.9423 12.7432C32.1583 12.7432 31.3971 12.4799 30.7808 11.9955C29.8085 11.3444 28.7615 10.8126 27.6623 10.4115C27.0501 10.1669 26.3748 10.1289 25.7389 10.3031C25.1031 10.4773 24.5415 10.8543 24.1395 11.3767C23.7276 11.9035 23.3787 12.4766 23.1 13.0845C22.6875 13.9095 22.374 14.7345 21.9945 15.5595C21.8169 16.0019 21.5154 16.3836 21.1261 16.6587C20.7368 16.9339 20.2763 17.0908 19.8 17.1105C18.7275 17.2095 17.6468 17.3167 16.5825 17.4735C14.1075 17.8447 12.87 19.4122 13.2 21.9202C13.3403 22.9432 13.5878 23.9497 13.8188 24.9562C13.9986 25.5451 13.9877 26.1757 13.7877 26.758C13.5876 27.3403 13.2087 27.8444 12.705 28.1985C12.3008 28.5037 11.88 28.842 11.5253 29.172C10.451 29.9912 9.64882 31.1154 9.22351 32.3977V33.5115C9.71721 34.8453 10.5746 36.0142 11.6985 36.8857C12.2678 37.389 12.8205 37.9087 13.3485 38.4367C13.5683 38.6451 13.732 38.9055 13.8243 39.194C13.9166 39.4824 13.9345 39.7895 13.8765 40.0867C13.7445 40.8622 13.5878 41.6295 13.4475 42.405C13.3485 42.9495 13.233 43.494 13.167 44.055C12.8783 46.3485 13.9425 47.883 16.203 48.3285C17.4323 48.5677 18.678 48.6667 19.9238 48.807C20.3429 48.8305 20.7468 48.9725 21.0885 49.2163C21.4302 49.4602 21.6957 49.796 21.8543 50.1847C22.1513 50.8447 22.4318 51.513 22.7535 52.1647C23.0579 52.8384 23.4108 53.4892 23.8095 54.1117C24.1626 54.7109 24.7022 55.178 25.3457 55.4417C25.9893 55.7054 26.7015 55.7512 27.3735 55.572C27.9274 55.435 28.4623 55.23 28.9658 54.9615C29.7908 54.549 30.6158 54.0952 31.3418 53.6167C31.8427 53.2866 32.4324 53.1169 33.0322 53.1301C33.632 53.1434 34.2136 53.339 34.6995 53.691C35.2275 54.0127 35.7555 54.3345 36.3 54.6315C36.7669 54.8986 37.249 55.1383 37.7438 55.3492C38.5336 55.7367 39.4426 55.8036 40.2807 55.5361C41.1187 55.2685 41.8208 54.6872 42.24 53.9137C42.5521 53.4202 42.8278 52.9046 43.065 52.371C43.4033 51.6615 43.7168 50.9355 44.0385 50.2177C44.1999 49.8135 44.4753 49.4649 44.8312 49.2144C45.1872 48.9639 45.6083 48.8224 46.0433 48.807C47.1075 48.6997 48.1635 48.5925 49.2195 48.4357C51.8925 48.048 53.0723 46.53 52.7175 43.8735C52.569 42.8092 52.338 41.745 52.0988 40.6972C51.9528 40.2051 51.9572 39.6806 52.1116 39.1911C52.266 38.7015 52.5632 38.2693 52.965 37.95C53.2785 37.6777 53.6085 37.4137 53.9138 37.125C54.4895 36.6332 55.0402 36.1128 55.5638 35.5657C57.0735 33.825 57.0983 32.175 55.5968 30.4177ZM53.3198 34.5427C52.8 35.0212 52.2638 35.4915 51.711 35.937C50.8244 36.5741 50.1661 37.4794 49.8333 38.5193C49.5006 39.5592 49.511 40.6785 49.863 41.712C50.0885 42.548 50.2783 43.3895 50.4323 44.2365C50.6303 45.3502 50.2673 45.8865 49.1453 46.068C48.0233 46.2495 46.761 46.3732 45.5648 46.53C44.783 46.6043 44.0352 46.8858 43.3986 47.3456C42.7619 47.8053 42.2595 48.4265 41.943 49.1452C41.5388 49.9702 41.184 50.8695 40.8128 51.7275C40.029 53.5342 39.468 53.724 37.7685 52.7752C37.0508 52.371 36.3495 51.9502 35.64 51.546C34.8277 51.0247 33.8827 50.7475 32.9175 50.7475C31.9523 50.7475 31.0073 51.0247 30.195 51.546C29.6505 51.876 29.106 52.1895 28.545 52.503C28.1573 52.7175 27.72 52.932 27.3488 53.1135C27.2058 53.219 27.04 53.2893 26.8648 53.3187C26.6895 53.3481 26.5099 53.3357 26.3403 53.2827C26.1707 53.2297 26.0161 53.1374 25.8888 53.0134C25.7616 52.8894 25.6654 52.7371 25.608 52.569C25.345 52.1084 25.1055 51.6348 24.8903 51.15C24.6098 50.5642 24.3623 49.9702 24.0653 49.3762C23.7092 48.5262 23.1196 47.7945 22.3647 47.2659C21.6098 46.7374 20.7205 46.4336 19.8 46.3897C18.7523 46.2907 17.7045 46.1835 16.6733 46.0102C15.642 45.837 15.4688 45.474 15.5265 44.253C15.675 43.5352 15.8648 42.4462 16.1205 41.3655C16.3942 40.4055 16.3713 39.3852 16.0547 38.4386C15.7382 37.4919 15.1428 36.663 14.3468 36.0607C13.7115 35.5162 13.068 34.98 12.4823 34.4107C11.3273 33.2557 11.352 32.5792 12.5483 31.4572C13.068 30.9705 13.596 30.492 14.1983 30.0547C15.0984 29.4088 15.7682 28.4918 16.1096 27.4378C16.451 26.3838 16.4462 25.2482 16.0958 24.1972C15.8462 23.2944 15.6533 22.3769 15.5183 21.45C15.3945 20.493 15.6915 20.1052 16.6485 19.9402C17.6533 19.7632 18.6667 19.6393 19.6845 19.569C20.6805 19.5487 21.6471 19.2284 22.4582 18.65C23.2692 18.0715 23.8868 17.2618 24.2303 16.3267C24.5603 15.543 24.915 14.7675 25.2698 14.0002C25.3865 13.7486 25.5216 13.5059 25.674 13.2742C25.7309 13.129 25.8188 12.9979 25.9316 12.8901C26.0444 12.7824 26.1793 12.7005 26.327 12.6502C26.4746 12.6 26.6315 12.5825 26.7866 12.5991C26.9417 12.6157 27.0913 12.6659 27.225 12.7462C28.05 13.1422 28.875 13.6125 29.6505 14.025C30.1868 14.3055 30.7148 14.5942 31.3005 14.85C31.9656 15.1233 32.6857 15.2359 33.4025 15.1786C34.1193 15.1212 34.8124 14.8956 35.4255 14.52C36.2505 14.058 37.0755 13.563 37.9005 13.101C39.3855 12.276 39.8558 12.408 40.6395 13.926C40.9448 14.5117 41.2005 15.1222 41.4645 15.7245L41.8605 16.5495C42.2112 17.3982 42.7994 18.1276 43.5546 18.65C44.3097 19.1725 45.1997 19.4658 46.1175 19.4947C47.0085 19.569 47.8995 19.668 48.7905 19.7587C48.9742 19.7783 49.1562 19.8113 49.335 19.8577C49.5237 19.8759 49.7059 19.936 49.8684 20.0338C50.0308 20.1315 50.1693 20.2643 50.2737 20.4225C50.3781 20.5808 50.4458 20.7603 50.4718 20.9481C50.4978 21.1359 50.4815 21.3271 50.424 21.5077C50.2425 22.5472 50.028 23.5702 49.7888 24.5932C49.5388 25.4934 49.5545 26.4468 49.8341 27.3382C50.1137 28.2297 50.6452 29.0213 51.3645 29.6175C52.0163 30.2115 52.6763 30.7972 53.3198 31.3995C54.6398 32.6122 54.6398 33.3135 53.3198 34.5345V34.5427Z" fill="#FF9601"/>
<path d="M40.0702 26.8455L34.8067 32.6205L30.8879 36.8858L28.5779 35.475C27.5632 34.881 26.5567 34.2705 25.5419 33.693C25.4147 33.6023 25.2707 33.538 25.1183 33.5038C24.9658 33.4696 24.8081 33.4663 24.6544 33.494C24.5006 33.5216 24.354 33.5798 24.2231 33.665C24.0921 33.7502 23.9795 33.8607 23.8919 33.99C23.7933 34.1343 23.7274 34.2984 23.699 34.4709C23.6706 34.6434 23.6803 34.82 23.7275 34.9883C23.7747 35.1565 23.8582 35.3125 23.9721 35.445C24.0861 35.5776 24.2276 35.6836 24.3869 35.7555C26.3284 36.9105 28.2699 38.0573 30.2114 39.1958C30.3603 39.3164 30.5327 39.4046 30.7176 39.4548C30.9025 39.5051 31.0959 39.5162 31.2853 39.4874C31.4748 39.4587 31.6561 39.3908 31.8178 39.288C31.9795 39.1852 32.118 39.0498 32.2244 38.8905C35.4364 35.409 38.6347 31.9248 41.8192 28.4378C42.038 28.2058 42.1557 27.8965 42.1464 27.5778C42.1371 27.259 42.0016 26.9571 41.7697 26.7383C41.5378 26.5195 41.2284 26.4017 40.9097 26.411C40.591 26.4203 40.289 26.5558 40.0702 26.7878V26.8455Z" fill="#FF9601"/>
</svg>
