<svg width="57" height="57" viewBox="0 0 57 57" fill="none" xmlns="http://www.w3.org/2000/svg">
<path d="M40.7123 23.3058C40.6198 23.1825 40.5698 23.0325 40.5698 22.8783C40.5698 22.7242 40.6198 22.5742 40.7123 22.4508C41.268 21.66 41.7739 20.8406 42.3154 20.0426C42.4611 19.8587 42.5445 19.6333 42.5535 19.3988C42.5624 19.1644 42.4965 18.9332 42.3653 18.7387C41.7953 17.7887 41.2371 16.8221 40.6909 15.8388C40.5911 15.6272 40.4274 15.4522 40.2229 15.3384C40.0184 15.2247 39.7834 15.1779 39.5509 15.2047C38.589 15.276 37.62 15.3116 36.6653 15.3971C36.5068 15.4218 36.3446 15.3924 36.205 15.3135C36.0653 15.2346 35.9564 15.111 35.8958 14.9625C34.884 13.167 33.8366 11.4 32.8106 9.59022C32.6032 9.19617 32.3063 8.85621 31.9438 8.59761C31.5812 8.339 31.1631 8.16895 30.723 8.1011C30.1691 8.0313 29.6067 8.12091 29.1019 8.35943C28.5971 8.59795 28.1708 8.97547 27.873 9.44772C23.9258 14.5017 19.9666 19.5391 15.9956 24.5598C15.8318 24.7658 15.6313 24.9397 15.4043 25.0728C12.9628 26.4978 10.5141 27.9228 8.05839 29.3478C6.83909 29.9914 5.85967 31.0108 5.26539 32.2548C4.98404 32.9738 4.74611 33.709 4.55289 34.4565V35.9527C4.59257 36.0173 4.6237 36.0868 4.64551 36.1593C4.89419 37.743 5.72382 39.1772 6.97262 40.1823C8.22142 41.1874 9.79983 41.6913 11.4 41.5957C12.1193 41.5252 12.8332 41.4086 13.5375 41.2466L13.7726 41.6456L18.0191 48.9487C18.1703 49.2185 18.3393 49.478 18.525 49.7253C18.9247 50.2337 19.4499 50.629 20.049 50.8724C20.6481 51.1157 21.3002 51.1987 21.9412 51.1131C22.5821 51.0275 23.1896 50.7763 23.7038 50.3842C24.218 49.9922 24.6211 49.4729 24.8734 48.8775C25.114 48.3173 25.2132 47.7065 25.1623 47.0989C25.1113 46.4914 24.9118 45.9057 24.5813 45.3933C23.6835 43.8543 22.7929 42.3082 21.8809 40.7265L23.9543 39.5223C24.852 39.0093 24.9589 38.6032 24.4459 37.7126L23.4484 35.967L23.9186 35.8458L37.905 33.1098C39.1091 32.8747 40.3133 32.6325 41.5174 32.3973C41.9743 32.3357 42.4087 32.1619 42.7821 31.8915C43.1555 31.6211 43.4561 31.2625 43.6572 30.8476C43.8583 30.4328 43.9535 29.9746 43.9345 29.514C43.9154 29.0534 43.7827 28.6047 43.548 28.2078C42.636 26.5762 41.6813 24.9375 40.7123 23.3058ZM39.1875 17.1C39.273 17.1 39.387 17.2282 39.444 17.328C39.7931 17.9122 40.1565 18.4965 40.4629 19.1021C40.4927 19.1656 40.5082 19.235 40.5082 19.3052C40.5082 19.3754 40.4927 19.4447 40.4629 19.5082C40.1565 20.007 39.8216 20.4915 39.444 21.0472C38.7315 19.7576 37.9834 18.525 37.2281 17.214C37.9121 17.1855 38.5463 17.1356 39.1875 17.1ZM13.5375 39.0948C12.9323 39.4566 12.253 39.6766 11.5505 39.7382C10.8481 39.7997 10.1409 39.7014 9.48195 39.4504C8.82301 39.1994 8.2295 38.8024 7.74601 38.2892C7.26252 37.776 6.90161 37.1598 6.69039 36.4871C6.37854 35.5332 6.39115 34.5028 6.72625 33.5568C7.06136 32.6108 7.70011 31.8023 8.54289 31.2573C10.5308 30.0176 12.5828 28.8847 14.6063 27.6948L16.074 26.8541L20.6981 34.9125L20.1139 35.2616C17.9123 36.5512 15.7178 37.8408 13.5375 39.0948ZM23.0138 46.3481C23.2781 46.7431 23.3819 47.224 23.3039 47.6929C23.2258 48.1617 22.9719 48.5831 22.5939 48.8712C22.2158 49.1593 21.7421 49.2923 21.2694 49.2432C20.7967 49.194 20.3605 48.9664 20.0498 48.6067C19.9426 48.4727 19.8472 48.3297 19.7648 48.1792L15.333 40.5626C15.2831 40.4842 15.2475 40.4058 15.1834 40.2847L18.3896 38.4322L18.582 38.7243L23.0138 46.3481ZM20.9618 39.102C20.6483 38.5676 20.349 38.0617 20.0213 37.4917L21.6386 36.5583L22.5649 38.1686L20.9618 39.102ZM34.0718 31.977C30.324 32.6895 26.5763 33.402 22.8285 34.1857C22.7729 34.2061 22.7137 34.2153 22.6545 34.2127C22.5953 34.2101 22.5372 34.1958 22.4835 34.1706C22.4299 34.1454 22.3817 34.1099 22.3419 34.066C22.3021 34.0221 22.2713 33.9708 22.2514 33.915C20.7409 31.274 19.2209 28.6377 17.6914 26.0062C17.6213 25.9278 17.5825 25.8264 17.5825 25.7212C17.5825 25.6161 17.6213 25.5146 17.6914 25.4362C21.0686 21.1612 24.4388 16.8696 27.8018 12.5613C27.8506 12.4964 27.8935 12.4273 27.93 12.3547L38.7244 31.0436L34.0718 31.977ZM40.698 30.6375C40.6125 30.6375 40.5555 30.4878 40.4985 30.3952L29.3408 11.058C29.2747 10.9847 29.2381 10.8895 29.2381 10.7908C29.2381 10.6921 29.2747 10.5969 29.3408 10.5236C29.6258 10.1673 29.9036 9.85385 30.4166 9.93935C30.5989 9.98505 30.7676 10.0735 30.9089 10.1974C31.0501 10.3213 31.1598 10.4771 31.2289 10.6518L36.3375 19.4441L41.8095 28.9275C41.9378 29.1555 42.0233 29.3977 42.0803 29.5188C42.0731 30.2741 41.2395 30.8655 40.698 30.6375Z" fill="#010C89"/>
<path d="M52.2548 10.545C52.2048 10.4096 52.1239 10.2877 52.0186 10.1891C51.9132 10.0905 51.7862 10.0179 51.6478 9.97706C51.5094 9.93622 51.3633 9.9283 51.2213 9.95392C51.0793 9.97954 50.9452 10.038 50.8298 10.1246C49.1673 11.0366 47.5048 11.9557 45.8423 12.882C45.7199 12.9464 45.6092 13.0306 45.5145 13.1314C45.3785 13.2516 45.288 13.4149 45.2582 13.5939C45.2283 13.773 45.261 13.9568 45.3506 14.1146C45.5551 14.3645 45.7951 14.583 46.0631 14.763C46.3342 14.6744 46.6005 14.5722 46.8611 14.4566C47.6948 14.0006 48.5141 13.5375 49.3406 13.0744C50.1671 12.6112 50.9438 12.198 51.7418 11.742C51.8542 11.6973 51.9567 11.6308 52.0433 11.5464C52.13 11.4619 52.1992 11.3612 52.2468 11.25C52.2945 11.1388 52.3197 11.0193 52.3211 10.8983C52.3224 10.7773 52.2999 10.6572 52.2548 10.545Z" fill="#010C89"/>
<path d="M50.2526 19.6793C49.1482 19.3729 48.0439 19.0808 46.9324 18.7815C46.8503 18.763 46.7669 18.7511 46.683 18.7459C46.447 18.7164 46.2086 18.7782 46.0166 18.9186C45.8246 19.0589 45.6934 19.2673 45.6499 19.5011C45.6085 19.7411 45.6641 19.9877 45.8043 20.1867C45.9446 20.3858 46.1581 20.521 46.398 20.5628C47.5166 20.8834 48.6424 21.1755 49.7681 21.4676C50.4307 21.6386 50.9152 21.3893 51.0506 20.8335C51.186 20.2778 50.8939 19.8574 50.2526 19.6793Z" fill="#010C89"/>
<path d="M41.0614 11.4C41.191 11.4299 41.3255 11.4325 41.4562 11.4074C41.5868 11.3823 41.7108 11.3302 41.8202 11.2544C41.9295 11.1786 42.0218 11.0807 42.0912 10.9672C42.1605 10.8536 42.2053 10.7268 42.2227 10.5949C42.4721 9.71849 42.693 8.83499 42.9352 7.95149C43.0207 7.62374 43.1062 7.29599 43.1632 7.06087C43.1954 6.8203 43.1355 6.57647 42.9954 6.37826C42.8553 6.18005 42.6455 6.04211 42.408 5.99212C42.1653 5.94843 41.9151 6.0026 41.7122 6.14278C41.5092 6.28296 41.37 6.49776 41.325 6.74024C41.0067 7.87074 40.7004 9.00837 40.4059 10.1531C40.3587 10.2776 40.3384 10.4108 40.3465 10.5437C40.3546 10.6766 40.3908 10.8063 40.4528 10.9242C40.5148 11.0421 40.6011 11.1454 40.706 11.2275C40.8109 11.3095 40.932 11.3683 41.0614 11.4Z" fill="#010C89"/>
<path d="M13.053 35.055C12.6397 35.2759 12.2407 35.5181 11.8417 35.7675C11.0936 36.2021 10.8157 36.1523 10.2244 35.511C10.0795 35.3159 9.86318 35.1861 9.62284 35.1501C9.38249 35.114 9.13765 35.1746 8.94187 35.3186C8.84153 35.3928 8.75722 35.4866 8.694 35.5942C8.63078 35.7018 8.58996 35.821 8.57399 35.9448C8.55802 36.0686 8.56723 36.1943 8.60106 36.3145C8.63489 36.4346 8.69265 36.5466 8.77087 36.6439C9.04347 37.0564 9.41867 37.3908 9.85964 37.6144C10.3006 37.8381 10.7922 37.9431 11.286 37.9193C11.6303 37.8546 11.967 37.7543 12.2906 37.62C12.8772 37.3349 13.448 37.0186 14.0006 36.6724C14.1233 36.6199 14.2333 36.5419 14.3235 36.4436C14.4137 36.3453 14.482 36.229 14.5237 36.1023C14.5655 35.9756 14.5799 35.8415 14.5658 35.7088C14.5518 35.5762 14.5097 35.448 14.4424 35.3329C14.3733 35.219 14.2813 35.1207 14.1722 35.0443C14.0631 34.9678 13.9393 34.9149 13.8087 34.8887C13.6781 34.8626 13.5435 34.8639 13.4134 34.8925C13.2833 34.9211 13.1606 34.9765 13.053 35.055Z" fill="#010C89"/>
<path d="M16.8862 33.0101C16.7065 33.0129 16.5316 33.0688 16.3835 33.1707C16.2354 33.2726 16.1207 33.416 16.0539 33.5829C15.987 33.7498 15.971 33.9327 16.0078 34.1086C16.0446 34.2846 16.1325 34.4458 16.2606 34.5719C16.3887 34.698 16.5512 34.7835 16.7277 34.8175C16.9043 34.8516 17.0869 34.8327 17.2527 34.7633C17.4185 34.6938 17.5601 34.577 17.6597 34.4273C17.7593 34.2777 17.8125 34.1019 17.8125 33.9221C17.8135 33.8009 17.7901 33.6807 17.7437 33.5686C17.6973 33.4566 17.6289 33.355 17.5425 33.27C17.4561 33.1849 17.3535 33.1181 17.2408 33.0734C17.128 33.0288 17.0075 33.0073 16.8862 33.0101Z" fill="#010C89"/>
</svg>
