<svg width="67" height="67" viewBox="0 0 67 67" fill="none" xmlns="http://www.w3.org/2000/svg">
<path d="M33.7513 21.641C32.8133 21.6996 32.1768 21.7331 31.5403 21.7834C31.2974 21.7834 31.0629 21.8336 30.82 21.8671C27.4942 22.2794 24.3201 23.5003 21.5753 25.4231C18.8305 27.346 16.5986 29.9121 15.075 32.897C14.9481 33.1005 14.8807 33.3355 14.8807 33.5754C14.8807 33.8152 14.9481 34.0503 15.075 34.2537C17.0162 38.011 20.067 41.0795 23.813 43.0424C27.559 45.0053 31.8184 45.7673 36.0125 45.225C43.1145 44.2535 48.3405 40.5099 51.791 34.237C51.9263 34.0273 51.9982 33.783 51.9982 33.5335C51.9982 33.284 51.9263 33.0397 51.791 32.83C47.8045 25.6275 41.6238 22.0262 33.7513 21.641ZM50.3087 34.2035C48.8152 36.9123 46.6855 39.2173 44.1031 40.9199C41.5207 42.6226 38.563 43.6718 35.4849 43.9771C31.6719 44.3872 27.8232 43.6499 24.4318 41.8594C21.0404 40.069 18.2607 37.307 16.4485 33.9271C16.3612 33.8049 16.3143 33.6585 16.3143 33.5084C16.3143 33.3582 16.3612 33.2118 16.4485 33.0896C17.8982 30.4189 19.9618 28.1309 22.4692 26.4142C24.9766 24.6975 27.8561 23.6011 30.8703 23.2155L31.6492 23.1234L33.6843 22.9977C40.8365 23.316 46.5148 26.5152 50.3254 32.9389C50.4559 33.1247 50.5244 33.3469 50.5214 33.5739C50.5184 33.8009 50.444 34.0212 50.3087 34.2035Z" fill="#010C89"/>
<path d="M31.0879 9.47216L31.5653 9.00316C31.9338 8.62628 32.3107 8.26616 32.7713 7.81391V12.2192C32.7713 12.6463 32.7713 13.0567 32.7713 13.5089C32.7699 13.5943 32.7863 13.6791 32.8196 13.7577C32.8529 13.8364 32.9023 13.9072 32.9647 13.9656C33.027 14.0239 33.1009 14.0686 33.1815 14.0967C33.2622 14.1248 33.3478 14.1357 33.4329 14.1287C33.5178 14.1344 33.6029 14.1226 33.683 14.0941C33.7631 14.0655 33.8364 14.0208 33.8985 13.9626C33.9606 13.9045 34.01 13.8342 34.0437 13.7562C34.0775 13.6781 34.0948 13.5939 34.0946 13.5089C34.1072 13.3416 34.1072 13.1737 34.0946 13.0064V7.73853L34.2369 7.65478C34.8316 8.26616 35.4178 8.88591 36.0208 9.49728C36.0803 9.57096 36.1545 9.63138 36.2387 9.67466C36.3229 9.71794 36.4152 9.74311 36.5097 9.74857C36.6042 9.75402 36.6988 9.73963 36.7874 9.70633C36.8761 9.67303 36.9567 9.62154 37.0242 9.55519C37.0918 9.48884 37.1447 9.40909 37.1795 9.32107C37.2144 9.23305 37.2304 9.13871 37.2266 9.04412C37.2228 8.94953 37.1993 8.85678 37.1575 8.77183C37.1157 8.68689 37.0566 8.61163 36.9839 8.55091C36.0124 7.58778 35.0745 6.61628 34.103 5.66153C33.7093 5.26791 33.3994 5.28466 32.9891 5.66153C32.5787 6.03841 32.0343 6.60791 31.5569 7.08528L30.1499 8.53415C29.8317 8.8524 29.7312 9.22091 30.0829 9.56428C30.4347 9.90766 30.7697 9.79878 31.0879 9.47216Z" fill="#010C89"/>
<path d="M14.1286 33.6926C14.1286 33.2404 13.8439 33.0226 13.4084 33.0059H7.74688L7.64638 32.8635C8.2745 32.2605 8.90263 31.6575 9.52238 31.0461C9.59588 30.9865 9.65514 30.9111 9.69584 30.8257C9.73654 30.7402 9.75766 30.6467 9.75766 30.552C9.75766 30.4573 9.73654 30.3639 9.69584 30.2784C9.65514 30.1929 9.59588 30.1176 9.52238 30.0579C9.46423 29.9877 9.39129 29.9311 9.30877 29.8923C9.22626 29.8535 9.13619 29.8334 9.045 29.8334C8.95381 29.8334 8.86375 29.8535 8.78123 29.8923C8.69872 29.9311 8.62578 29.9877 8.56763 30.0579C7.56263 31.0573 6.56042 32.0623 5.561 33.0729C5.49543 33.1295 5.44283 33.1996 5.40677 33.2783C5.37071 33.3571 5.35205 33.4427 5.35205 33.5293C5.35205 33.616 5.37071 33.7016 5.40677 33.7803C5.44283 33.8591 5.49543 33.9292 5.561 33.9858C6.57717 35.0354 7.60729 36.0656 8.65138 37.0761C8.7072 37.1415 8.77654 37.1941 8.85462 37.2301C8.93269 37.2661 9.01765 37.2847 9.10363 37.2847C9.18961 37.2847 9.27456 37.2661 9.35264 37.2301C9.43072 37.1941 9.50005 37.1415 9.55588 37.0761C9.61971 37.0197 9.67156 36.951 9.70834 36.8741C9.74512 36.7972 9.76608 36.7137 9.76999 36.6286C9.77389 36.5434 9.76066 36.4584 9.73107 36.3785C9.70149 36.2985 9.65615 36.2254 9.59775 36.1633C9.46323 36.0078 9.31769 35.8623 9.16225 35.7278L7.79713 34.3375H13.4C13.8188 34.3375 14.1203 34.1449 14.1286 33.6926Z" fill="#010C89"/>
<path d="M61.4641 33.0226L60.9448 32.5117L58.692 30.2505C58.2397 29.7982 57.8545 29.7396 57.5362 30.0662C57.218 30.3929 57.2933 30.753 57.754 31.222C58.2146 31.691 58.5915 32.0092 58.9432 32.4112C59.0353 32.5034 59.1107 32.6206 59.2447 32.7797H54.2197C53.332 32.7797 53.0221 32.9472 53.0137 33.4414C53.0053 33.9355 53.3403 34.1281 54.2448 34.1281H59.429L59.4792 34.2705L57.6367 36.0711C57.5608 36.1272 57.4981 36.1994 57.4531 36.2824C57.4081 36.3654 57.3818 36.4573 57.3763 36.5515C57.3707 36.6458 57.3858 36.7401 57.4207 36.8279C57.4556 36.9156 57.5093 36.9947 57.5781 37.0594C57.6368 37.1343 57.7119 37.1948 57.7975 37.2364C57.8831 37.2781 57.977 37.2997 58.0722 37.2997C58.1674 37.2997 58.2613 37.2781 58.3469 37.2364C58.4325 37.1948 58.5076 37.1343 58.5663 37.0594C59.5546 36.0879 60.5261 35.108 61.506 34.1281C61.5902 34.0611 61.6575 33.9751 61.7024 33.8773C61.7474 33.7794 61.7686 33.6724 61.7646 33.5648C61.7605 33.4572 61.7312 33.3521 61.679 33.2579C61.6268 33.1637 61.5532 33.0831 61.4641 33.0226Z" fill="#010C89"/>
<path d="M36.0125 57.7121L34.3375 59.3871V54.0606C34.3375 53.3152 34.1281 52.9802 33.6507 52.997C33.1733 53.0137 32.9975 53.3152 32.9891 54.0857V59.4039L32.8635 59.4625L31.0963 57.6619C31.0419 57.5791 30.9698 57.5094 30.8851 57.4579C30.8005 57.4064 30.7055 57.3742 30.607 57.3638C30.5085 57.3534 30.4089 57.365 30.3154 57.3977C30.2219 57.4304 30.1368 57.4834 30.0662 57.553C29.7396 57.8294 29.7815 58.2397 30.1583 58.625C31.0796 59.5518 32.0064 60.4787 32.9388 61.4055C33.4078 61.8745 33.701 61.8745 34.1783 61.4055L36.9086 58.6669C37.3273 58.2481 37.3776 57.8294 37.0426 57.553C36.7076 57.2766 36.2888 57.3688 36.0125 57.7121Z" fill="#010C89"/>
<path d="M14.1203 19.0783C14.5474 19.0783 14.807 18.7768 14.807 18.1905C14.807 17.4703 14.807 16.75 14.807 16.0382L14.9494 15.9628C15.4519 16.4904 15.946 17.018 16.4485 17.5289C17.219 18.3162 18.0063 19.095 18.7852 19.8739C18.8451 19.9371 18.9169 19.988 18.9965 20.0234C19.0761 20.0589 19.1619 20.0784 19.249 20.0807C19.3361 20.0831 19.4228 20.0682 19.5041 20.037C19.5855 20.0059 19.6599 19.959 19.7232 19.899C19.7864 19.8391 19.8372 19.7673 19.8727 19.6877C19.9082 19.6081 19.9277 19.5223 19.93 19.4352C19.9323 19.3481 19.9175 19.2614 19.8863 19.1801C19.8551 19.0987 19.8082 19.0243 19.7483 18.961C19.6143 18.8103 19.4635 18.6679 19.3212 18.5172L15.7032 14.874L15.8204 14.8238H18.1822C18.7684 14.8238 19.1034 14.5725 19.0699 14.137C19.0364 13.7015 18.6763 13.4754 18.2324 13.4754C16.9259 13.4754 15.611 13.4754 14.3045 13.4754C13.7099 13.4754 13.467 13.6932 13.467 14.3129C13.467 15.6194 13.467 16.9259 13.467 18.2408C13.4587 18.6763 13.5927 19.028 14.1203 19.0783Z" fill="#010C89"/>
<path d="M48.0892 19.7985C48.236 19.6811 48.3732 19.5523 48.4996 19.4132L52.3018 15.6277C52.3018 16.6244 52.3018 17.4786 52.3018 18.3329C52.3018 18.7684 52.5112 19.0699 52.9635 19.0699C53.058 19.077 53.153 19.0628 53.2414 19.0285C53.3298 18.9942 53.4094 18.9406 53.4744 18.8715C53.5395 18.8025 53.5882 18.7198 53.6172 18.6295C53.6462 18.5392 53.6546 18.4436 53.6418 18.3496C53.6418 16.9594 53.6418 15.5775 53.6418 14.1621C53.654 14.0635 53.6436 13.9634 53.6113 13.8694C53.579 13.7755 53.5257 13.6901 53.4555 13.6199C53.3852 13.5496 53.2998 13.4963 53.2059 13.464C53.1119 13.4317 53.0118 13.4213 52.9132 13.4335H48.9267C48.3404 13.4335 48.0306 13.6847 48.0306 14.1202C48.0306 14.5557 48.3488 14.7735 48.9518 14.7819H50.6938C50.8278 14.7819 50.9618 14.7819 51.1628 14.8321L48.1311 17.8639C47.7877 18.1539 47.4761 18.4795 47.2015 18.8354C47.139 18.9661 47.1066 19.1092 47.1066 19.2541C47.1066 19.399 47.139 19.5421 47.2015 19.6729C47.2447 19.7477 47.3043 19.8116 47.3759 19.86C47.4476 19.9083 47.5292 19.9397 47.6147 19.9518C47.7003 19.9639 47.7874 19.9564 47.8696 19.9298C47.9518 19.9033 48.0269 19.8583 48.0892 19.7985Z" fill="#010C89"/>
<path d="M18.8019 47.5197C17.6294 48.709 16.4485 49.8815 15.276 51.0624C15.1504 51.188 15.0164 51.2885 14.807 51.4727C14.807 50.5431 14.807 49.7224 14.807 48.9016C14.807 48.3572 14.5558 48.0641 14.137 48.0641C13.7183 48.0641 13.467 48.3656 13.467 48.9016C13.467 50.2165 13.467 51.523 13.467 52.8295C13.467 53.4576 13.6764 53.667 14.3045 53.667C15.5943 53.667 16.884 53.667 18.1738 53.667C18.7684 53.667 19.095 53.4157 19.0615 52.9802C19.028 52.5447 18.6595 52.3186 18.224 52.3186C17.5038 52.3186 16.7835 52.3186 15.9544 52.3186L16.3983 51.8329L19.8069 48.4242C20.2005 48.0306 20.2173 47.5867 19.8572 47.3187C19.497 47.0507 19.1034 47.2182 18.8019 47.5197Z" fill="#010C89"/>
<path d="M52.9802 48.0557C52.5447 48.0557 52.3018 48.3572 52.3018 48.9435C52.3018 49.6554 52.3018 50.3672 52.3018 51.2131L51.8077 50.7441C50.6771 49.6051 49.5465 48.4577 48.3907 47.3355C48.1899 47.1598 47.9285 47.0697 47.6621 47.0842C47.5512 47.1167 47.451 47.178 47.3715 47.2619C47.2921 47.3457 47.2363 47.4492 47.2098 47.5616C47.2254 47.8487 47.341 48.1213 47.5365 48.3321C48.6922 49.5214 49.8898 50.6855 51.0623 51.8664C51.1796 51.9836 51.2885 52.1092 51.4811 52.3186H48.8681C48.3237 52.3186 48.0306 52.5866 48.0306 53.0054C48.0306 53.4241 48.3907 53.667 48.8681 53.667H52.8462C53.4492 53.667 53.6837 53.4576 53.6837 52.8295C53.6837 51.523 53.6837 50.2081 53.6837 48.9016C53.6502 48.4494 53.5078 48.0976 52.9802 48.0557Z" fill="#010C89"/>
<path d="M33.6256 25.594C32.0453 25.579 30.4961 26.0341 29.1749 26.9015C27.8536 27.7688 26.82 29.0092 26.2052 30.4652C25.5904 31.9212 25.4222 33.527 25.722 35.0788C26.0217 36.6306 26.7759 38.0583 27.8888 39.1805C29.0016 40.3028 30.4228 41.069 31.972 41.3819C33.5212 41.6947 35.1284 41.5401 36.5896 40.9376C38.0507 40.3352 39.2998 39.312 40.1782 37.9982C41.0567 36.6843 41.5249 35.1391 41.5233 33.5586C41.519 31.4591 40.6876 29.4459 39.2094 27.9551C37.7311 26.4643 35.725 25.616 33.6256 25.594ZM33.567 40.2C32.2568 40.1983 30.9765 39.8082 29.888 39.0789C28.7995 38.3496 27.9517 37.3139 27.4518 36.1028C26.952 34.8916 26.8225 33.5595 27.0797 32.2747C27.3369 30.99 27.9694 29.8104 28.897 28.8851C29.8247 27.9598 31.0058 27.3304 32.2912 27.0764C33.5766 26.8224 34.9084 26.9553 36.1183 27.4582C37.3281 27.9611 38.3617 28.8115 39.0882 29.9019C39.8148 30.9922 40.2017 32.2735 40.2 33.5837C40.1934 35.3393 39.4919 37.0209 38.2489 38.2607C37.0059 39.5005 35.3226 40.1978 33.567 40.2Z" fill="#010C89"/>
<path d="M37.2436 32.1349C36.9333 32.3617 36.5497 32.465 36.1674 32.4248C35.7851 32.3845 35.4314 32.2036 35.175 31.9171C34.9066 31.6263 34.7576 31.2451 34.7576 30.8493C34.7576 30.4536 34.9066 30.0724 35.175 29.7815C35.7696 29.078 35.6273 28.6258 34.7228 28.3996C33.6768 28.1317 32.5732 28.1986 31.5673 28.591C30.5614 28.9834 29.704 29.6816 29.1159 30.587C28.5278 31.4925 28.2385 32.5597 28.289 33.6382C28.3394 34.7167 28.7269 35.7523 29.397 36.5989C30.0671 37.4455 30.9859 38.0606 32.024 38.3574C33.0621 38.6543 34.1672 38.6179 35.1835 38.2535C36.1999 37.8891 37.0763 37.215 37.6893 36.3261C38.3023 35.4373 38.6209 34.3785 38.6004 33.299C38.6004 33.1985 38.6004 32.9891 38.6004 32.7881C38.525 31.825 38.056 31.5905 37.2436 32.1349ZM33.366 37.1599C32.8656 37.1458 32.3728 37.0329 31.9162 36.8275C31.4596 36.6221 31.0482 36.3284 30.7056 35.9633C30.3631 35.5982 30.0962 35.1688 29.9203 34.7001C29.7445 34.2313 29.6631 33.7324 29.681 33.232C29.6935 32.7289 29.8075 32.2335 30.0162 31.7755C30.2249 31.3175 30.524 30.9065 30.8956 30.567C31.2671 30.2275 31.7035 29.9666 32.1784 29.8C32.6533 29.6333 33.1569 29.5644 33.6591 29.5973C33.4348 30.1137 33.3621 30.6832 33.4496 31.2394C33.5371 31.7956 33.7812 32.3153 34.1533 32.7379C34.5252 33.1693 35.0147 33.483 35.5621 33.6407C36.1094 33.7983 36.6908 33.7931 37.2353 33.6256C37.2159 34.1141 37.1004 34.5939 36.8953 35.0377C36.6903 35.4814 36.3998 35.8804 36.0404 36.2118C35.681 36.5432 35.2598 36.8004 34.8009 36.9689C34.342 37.1373 33.8544 37.2136 33.366 37.1934V37.1599Z" fill="#010C89"/>
</svg>
